<svg xmlns="http://www.w3.org/2000/svg" width="24.96" height="24" viewBox="0 0 24.96 24"><defs><style>.a{fill:none;}.b{fill:#fafafa;}</style></defs><rect class="a" width="24.96" height="24"/><rect class="a" width="24.96" height="24"/><path class="b" d="M20.508,9.3h0l-.1,4.9a3.082,3.082,0,0,1-3.224,2.9H11.356c-.52,0-.728.1-.832.2l-1.248.9c.208,1,1.456,1.5,2.6,1.5h4.472c.312,0,.52,0,.624.1l2.7,2.2V19.7h.832a2.242,2.242,0,0,0,2.288-2V11.4A2.184,2.184,0,0,0,20.508,9.3ZM9.8,16.2c.1-.1.312-.2.832-.2h5.1a3.055,3.055,0,0,0,3.12-2.9V4.6A2.728,2.728,0,0,0,16.036,2H4.908A2.864,2.864,0,0,0,2.1,5v8.2A2.91,2.91,0,0,0,5.22,16h.832v3.1Z" transform="translate(0.084)"/></svg>